<svg width="22" height="22" viewBox="0 0 22 22" fill="none" xmlns="http://www.w3.org/2000/svg">
<path d="M16.0186 18.4432C15.9182 17.8919 15.4499 15.2648 14.2788 12.0216C17.0892 11.5675 19.5651 12.3135 19.8662 12.4108C19.4982 14.9081 18.0595 17.081 16.0186 18.4432L16.0186 18.4432ZM11 19.9999C8.92566 19.9999 7.01864 19.2864 5.47958 18.0864C5.64685 17.7621 7.45356 14.227 12.5391 12.4757C12.5725 12.4757 12.5725 12.4757 12.606 12.4432C13.8774 15.7189 14.3792 18.4756 14.513 19.254C13.4424 19.7405 12.238 20 11 20L11 19.9999ZM2 10.9838V10.7243C2.40148 10.7243 6.75093 10.7892 11.2342 9.45951C11.5019 9.97843 11.7361 10.4649 11.9703 10.9839C11.8365 11.0163 11.7361 11.0487 11.6023 11.0812C6.95174 12.573 4.50934 16.6595 4.27517 17.0163C2.9034 15.3946 2.00008 13.2866 2.00008 10.9839L2 10.9838ZM7.18587 2.84326C7.4201 3.16763 9.02604 5.40541 10.5316 8.03245C6.31599 9.13516 2.60222 9.13516 2.20075 9.13516C2.76949 6.346 4.67663 4.04329 7.18591 2.84328L7.18587 2.84326ZM11 2C13.2751 2 15.3829 2.84322 16.9554 4.27028C16.7882 4.49733 15.4499 6.31355 12.238 7.51351C10.7658 4.82162 9.12641 2.58381 8.89222 2.25949C9.56132 2.09735 10.264 2.00004 11.0001 2.00004L11 2ZM17.9591 5.30812C19.197 6.83247 19.9665 8.77838 20 10.9189C19.6989 10.854 16.7212 10.2378 13.7435 10.627C13.6765 10.4649 13.6097 10.3026 13.5427 10.173C13.342 9.71892 13.1412 9.2973 12.9405 8.87565C16.2862 7.48107 17.7918 5.56757 17.9591 5.30812V5.30812Z" fill="#B6BECA"/>
</svg>
