<svg width="22" height="22" viewBox="0 0 22 22" fill="none" xmlns="http://www.w3.org/2000/svg">
<path d="M11 8.82609H7.93749C5.75 8.82609 4 7.08696 4 4.91304C4 2.73913 5.75 1 7.93749 1H11C11.525 1 11.875 1.34783 11.875 1.86957V7.95652C11.875 8.47826 11.525 8.82609 11 8.82609V8.82609ZM7.93749 2.73913C6.7125 2.73913 5.75 3.69565 5.75 4.91304C5.75 6.13043 6.7125 7.08696 7.93749 7.08696H10.125V2.73913H7.93749Z" fill="#B6BECA"/>
<path d="M14.0625 8.82609H11C10.475 8.82609 10.125 8.47826 10.125 7.95652V1.86957C10.125 1.34783 10.475 1 11 1H14.0625C16.25 1 18 2.73913 18 4.91304C18 7.08696 16.25 8.82609 14.0625 8.82609ZM11.875 7.08696H14.0625C15.2875 7.08696 16.25 6.13043 16.25 4.91304C16.25 3.69565 15.2875 2.73913 14.0625 2.73913H11.875V7.08696V7.08696Z" fill="#B6BECA"/>
<path d="M14.0625 14.913C11.875 14.913 10.125 13.1739 10.125 11C10.125 8.82607 11.875 7.08694 14.0625 7.08694C16.25 7.08694 18 8.82607 18 11C18 13.1739 16.25 14.913 14.0625 14.913ZM14.0625 8.82607C12.8375 8.82607 11.875 9.7826 11.875 11C11.875 12.2174 12.8375 13.1739 14.0625 13.1739C15.2875 13.1739 16.25 12.2174 16.25 11C16.25 9.7826 15.2875 8.82607 14.0625 8.82607Z" fill="#B6BECA"/>
<path d="M7.93749 21C5.75 21 4 19.2609 4 17.087C4 14.913 5.75 13.1739 7.93749 13.1739H11C11.525 13.1739 11.875 13.5217 11.875 14.0435V17.087C11.875 19.2609 10.125 21 7.93749 21ZM7.93749 14.913C6.7125 14.913 5.75 15.8696 5.75 17.087C5.75 18.3044 6.7125 19.2609 7.93749 19.2609C9.16249 19.2609 10.125 18.3044 10.125 17.087V14.913H7.93749Z" fill="#B6BECA"/>
<path d="M11 14.913H7.93749C5.75 14.913 4 13.1739 4 11C4 8.82609 5.75 7.08696 7.93749 7.08696H11C11.525 7.08696 11.875 7.43479 11.875 7.95652V14.0435C11.875 14.5652 11.525 14.913 11 14.913V14.913ZM7.93749 8.82609C6.7125 8.82609 5.75 9.78261 5.75 11C5.75 12.2174 6.7125 13.1739 7.93749 13.1739H10.125V8.82609H7.93749V8.82609Z" fill="#B6BECA"/>
</svg>
