<svg width="22" height="22" viewBox="0 0 22 22" fill="none" xmlns="http://www.w3.org/2000/svg">
<path fill-rule="evenodd" clip-rule="evenodd" d="M2.45672 5.7039C2 6.80653 2 8.20435 2 11C2 13.7956 2 15.1935 2.45672 16.2961C3.06569 17.7663 4.23373 18.9343 5.7039 19.5433C6.80653 20 8.20435 20 11 20C13.7956 20 15.1935 20 16.2961 19.5433C17.7663 18.9343 18.9343 17.7663 19.5433 16.2961C20 15.1935 20 13.7956 20 11C20 8.20435 20 6.80653 19.5433 5.7039C18.9343 4.23373 17.7663 3.06569 16.2961 2.45672C15.1935 2 13.7956 2 11 2C8.20435 2 6.80653 2 5.7039 2.45672C4.23373 3.06569 3.06569 4.23373 2.45672 5.7039ZM10.3053 5.16667H12.8C12.9105 5.16667 13 5.25621 13 5.36667V12.4583C13 14.6637 10.4244 16.3358 9.74279 16.7396C9.65108 16.794 9.53579 16.7616 9.48085 16.6702L8.11399 14.3978C8.05297 14.2964 8.09354 14.1645 8.19893 14.1106C9.55375 13.4174 10.1053 12.5478 10.1053 11.5833V5.36659C10.1053 5.25613 10.1948 5.16667 10.3053 5.16667Z" fill="#B6BECA"/>
</svg>
