<svg width="22" height="22" viewBox="0 0 22 22" fill="none" xmlns="http://www.w3.org/2000/svg">
<path fill-rule="evenodd" clip-rule="evenodd" d="M11 21C16.5225 21 21 16.5225 21 11C21 5.4775 16.5225 1 11 1C5.4775 1 1 5.4775 1 11C1 16.5225 5.4775 21 11 21ZM8.10272 4.87659C8.07399 4.92986 8.05901 4.98947 8.05917 5.05V5.05083V11.765C8.05917 12.3525 8.12667 12.7033 8.28083 13.0133C8.44241 13.337 8.70595 13.5985 9.03083 13.7575C9.24622 13.8603 9.47816 13.9241 9.71583 13.9458C9.88577 13.9642 10.0566 13.9734 10.2275 13.9733H13.0975C13.8742 13.9767 14.4042 14.0925 14.8992 14.3575C15.3803 14.6134 15.7741 15.0072 16.03 15.4883C16.1557 15.7024 16.2392 15.9386 16.2758 16.1842C16.2857 16.2403 16.294 16.2967 16.3008 16.3533C16.4 17.0892 15.7842 17.8142 14.84 17.8142H12.9608C12.6083 17.8142 12.3083 17.7917 12.0408 17.745C11.7185 17.6908 11.4072 17.5844 11.1192 17.43C10.8625 17.2925 10.6325 17.1192 10.4342 16.9133C10.2592 16.7325 10.0692 16.4492 9.98833 16.2992C9.90833 16.1492 10.0267 15.9542 10.2183 15.9292C10.4108 15.905 10.89 15.8458 11.2608 16.1175C11.3093 16.1526 11.3553 16.1911 11.4016 16.2297C11.4826 16.2973 11.5643 16.3655 11.6608 16.4175C11.842 16.5146 12.038 16.5811 12.2408 16.6142C12.467 16.6505 12.6959 16.6678 12.925 16.6658H14.745C14.8056 16.6662 14.8653 16.6514 14.9187 16.6227C14.9721 16.594 15.0175 16.5524 15.0506 16.5017C15.0838 16.4509 15.1037 16.3927 15.1085 16.3323C15.1134 16.2719 15.103 16.2112 15.0783 16.1558C14.9357 15.8187 14.6811 15.5411 14.3575 15.37C14.0333 15.1967 13.6775 15.1217 13.0575 15.1217H10.2675C10.0142 15.1217 9.78917 15.11 9.58417 15.0858C9.12083 15.0325 8.75083 14.9158 8.3925 14.7192C7.93917 14.47 7.56417 14.095 7.31417 13.6425C7.03583 13.1367 6.915 12.6 6.91083 11.805V4.875C6.91083 4.24083 7.3725 3.5775 8.05917 3.53583C8.58417 3.50417 8.9675 3.6225 9.23667 3.76667C9.71795 4.02268 10.112 4.4164 10.3683 4.8975C10.6325 5.3925 10.7483 5.92333 10.7525 6.69917V12.5708C10.7527 12.605 10.7451 12.6388 10.7303 12.6697C10.7155 12.7005 10.6939 12.7276 10.667 12.7488C10.6402 12.77 10.6089 12.7848 10.5755 12.7921C10.542 12.7994 10.5074 12.7989 10.4742 12.7908C9.97417 12.6667 9.60417 12.2142 9.60417 11.6758V6.73917C9.60417 6.11833 9.52833 5.7625 9.355 5.43917C9.26917 5.27833 9.1625 5.13917 9.03583 5.02C8.89909 4.89254 8.74117 4.78989 8.56917 4.71667C8.51379 4.69223 8.45318 4.68202 8.39285 4.68696C8.33252 4.6919 8.27439 4.71183 8.22372 4.74495C8.17305 4.77806 8.13146 4.82331 8.10272 4.87659Z" fill="#B6BECA"/>
</svg>
