<svg width="22" height="22" viewBox="0 0 22 22" fill="none" xmlns="http://www.w3.org/2000/svg">
<path d="M6.32178 4C6.31471 4 6.30767 4.00002 6.30059 4.00007L6.27165 6.38597C6.27828 6.3859 6.28489 6.38584 6.29151 6.38584C7.86439 6.38584 9.08439 7.62406 11.7361 12.0837L11.8978 12.3552L11.9083 12.3729L13.3927 10.1492L13.3824 10.132C13.0331 9.56474 12.6975 9.04279 12.3757 8.56619C12.0024 8.014 11.6454 7.52069 11.299 7.08024C9.54479 4.85021 8.07737 4 6.32178 4Z" fill="#B6BECA"/>
<path d="M6.30059 4.00007C4.53646 4.00912 2.97686 5.1481 1.85067 6.89098C1.84738 6.89608 1.84408 6.9012 1.84079 6.90631L3.90801 8.02971C3.91136 8.02465 3.91474 8.01954 3.91811 8.01449C4.57573 7.0259 5.39408 6.39536 6.27165 6.38597C6.27828 6.3859 6.28489 6.38584 6.29151 6.38584L6.32178 4C6.31471 4 6.30767 4.00002 6.30059 4.00007Z" fill="#B6BECA"/>
<path d="M1.85067 6.89098C1.84738 6.89608 1.84408 6.9012 1.84079 6.90631C1.10077 8.05647 0.549121 9.46788 0.250985 10.9905C0.249693 10.9971 0.248407 11.0037 0.247126 11.0103L2.56956 11.5574C2.57078 11.5508 2.57201 11.5442 2.57323 11.5376C2.82147 10.1995 3.29408 8.95836 3.90801 8.02971C3.91136 8.02465 3.91474 8.01954 3.91811 8.01449L1.85067 6.89098Z" fill="#B6BECA"/>
<path d="M2.57323 11.5376L0.250985 10.9905C0.249693 10.9971 0.248407 11.0037 0.247126 11.0103C0.0845571 11.8477 0.00182275 12.6986 8.65138e-05 13.5516C8.65138e-05 13.5585 8.65138e-05 13.5654 8.65138e-05 13.5723L2.38184 13.785C2.38164 13.7781 2.38145 13.7712 2.38129 13.7643C2.38012 13.7148 2.37952 13.6647 2.3795 13.6139C2.38069 12.9241 2.44431 12.2358 2.56956 11.5574C2.57078 11.5508 2.57201 11.5442 2.57323 11.5376Z" fill="#B6BECA"/>
<path d="M2.45427 14.5269C2.41155 14.2818 2.38733 14.0338 2.38184 13.785C2.38164 13.7781 2.38145 13.7712 2.38129 13.7643L8.65138e-05 13.5516C8.65138e-05 13.5585 8.65138e-05 13.5654 8.65138e-05 13.5723L0.000102789 13.5736C-0.00241354 14.0723 0.0412759 14.5701 0.130613 15.0607C0.131859 15.0673 0.133083 15.0738 0.134348 15.0805L2.4579 14.5468C2.45664 14.5402 2.45546 14.5336 2.45427 14.5269Z" fill="#B6BECA"/>
<path d="M2.99692 15.7577C2.73774 15.4752 2.55432 15.0679 2.4579 14.5468C2.45664 14.5402 2.45546 14.5336 2.45427 14.5269L0.130613 15.0607C0.131859 15.0673 0.133083 15.0738 0.134348 15.0805C0.309982 16.0012 0.654422 16.7684 1.14769 17.3489C1.15207 17.3541 1.16089 17.3644 1.16089 17.3644L3.01076 15.7726C3.00613 15.7676 2.99692 15.7577 2.99692 15.7577Z" fill="#B6BECA"/>
<path d="M9.88101 9.15797C8.48076 11.3024 7.63251 12.6474 7.63251 12.6474C5.76724 15.5668 5.12194 16.2211 4.08345 16.2211C3.65012 16.2211 3.28809 16.067 3.01076 15.7726C3.00613 15.7676 2.99692 15.7577 2.99692 15.7577L1.14769 17.3489C1.15207 17.3541 1.16089 17.3644 1.16089 17.3644C1.84197 18.1571 2.80337 18.5969 3.9927 18.5969C5.7921 18.5969 7.08623 17.7499 9.38685 13.7346C9.38685 13.7346 10.3459 12.0437 11.0057 10.8789C10.597 10.2201 10.2251 9.64973 9.88101 9.15797Z" fill="#B6BECA"/>
<path d="M12.3769 5.77323C12.3721 5.77822 12.3673 5.78334 12.3626 5.78836C11.9832 6.19791 11.6283 6.62955 11.299 7.08024C11.6454 7.52069 12.0024 8.014 12.3757 8.56619C12.8156 7.88822 13.2267 7.33963 13.6292 6.91876C13.6339 6.91378 13.6386 6.90891 13.6434 6.90397L12.3769 5.77323Z" fill="#B6BECA"/>
<path d="M19.1749 5.56304C18.1984 4.57801 17.034 4.00004 15.7892 4.00004C14.4767 4.00004 13.3727 4.7182 12.3769 5.77323C12.3721 5.77822 12.3673 5.78334 12.3626 5.78836L13.6292 6.91876C13.6339 6.91378 13.6386 6.90891 13.6434 6.90397C14.2994 6.22266 14.9342 5.88255 15.638 5.88255C16.3955 5.88255 17.1047 6.23857 17.7188 6.86272C17.7236 6.86761 17.7284 6.87247 17.7332 6.87739L19.1894 5.57769C19.1846 5.57279 19.1798 5.56793 19.1749 5.56304Z" fill="#B6BECA"/>
<path d="M21.998 13.2376C21.9433 10.0749 20.8349 7.24741 19.1894 5.57769C19.1846 5.57279 19.1798 5.56793 19.1749 5.56304L17.7188 6.86272C17.7236 6.86761 17.7284 6.87247 17.7332 6.87739C18.9709 8.14686 19.82 10.5081 19.8972 13.2369C19.8974 13.2438 19.8976 13.2506 19.8978 13.2575L21.9984 13.2582C21.9982 13.2513 21.998 13.2445 21.998 13.2376Z" fill="#B6BECA"/>
<path d="M21.9984 13.2582C21.9982 13.2513 21.998 13.2445 21.998 13.2376L19.8972 13.2369C19.8974 13.2438 19.8976 13.2506 19.8978 13.2575C19.9013 13.3856 19.9029 13.5144 19.9029 13.644C19.9029 14.3881 19.7916 14.9895 19.5652 15.4237C19.5618 15.4301 19.5585 15.4366 19.5551 15.4429L21.1214 17.0694C21.1253 17.0635 21.129 17.0576 21.1329 17.0517C21.7016 16.1757 22 14.9587 22 13.483C22 13.4079 21.9995 13.3329 21.9984 13.2582Z" fill="#B6BECA"/>
<path d="M19.5652 15.4237C19.5618 15.4301 19.5585 15.4366 19.5551 15.4429C19.3591 15.8089 19.0796 16.053 18.7142 16.1598L19.4282 18.4066C19.5227 18.3745 19.6148 18.3385 19.7043 18.2986C19.731 18.2867 19.7576 18.2745 19.7838 18.2619C19.7991 18.2546 19.8141 18.2473 19.8292 18.2398C20.3055 17.9999 20.7153 17.6469 21.023 17.2118C21.0427 17.1846 21.0622 17.1571 21.0813 17.1291C21.0948 17.1094 21.1083 17.0895 21.1214 17.0694C21.1253 17.0635 21.129 17.0576 21.1329 17.0517L19.5652 15.4237Z" fill="#B6BECA"/>
<path d="M18.2596 16.2211C18.0337 16.2265 17.8094 16.1829 17.6021 16.0933L16.871 18.3936C17.2819 18.5337 17.7202 18.5969 18.2091 18.5969C18.6301 18.6009 19.0487 18.5343 19.4477 18.3999L18.7339 16.1539C18.5801 16.1999 18.4201 16.2226 18.2596 16.2211Z" fill="#B6BECA"/>
<path d="M16.7966 15.4344C16.7921 15.4292 16.7876 15.424 16.783 15.4187L15.1008 17.1656C15.1055 17.1706 15.1102 17.1757 15.1149 17.1807C15.6994 17.8026 16.2576 18.1884 16.8906 18.4002L17.6211 16.1016C17.3544 15.9872 17.0964 15.7798 16.7966 15.4344Z" fill="#B6BECA"/>
<path d="M16.783 15.4187C16.2784 14.8328 15.6542 13.8574 14.6723 12.2799L13.3927 10.1492L13.3824 10.132L11.8978 12.3552L11.9083 12.3729L12.815 13.8957C13.6939 15.3641 14.4098 16.4264 15.1008 17.1656C15.1055 17.1706 15.1102 17.1757 15.1149 17.1807L16.7966 15.4344C16.7921 15.4292 16.7876 15.424 16.783 15.4187Z" fill="#B6BECA"/>
</svg>
