<svg width="22" height="22" viewBox="0 0 22 22" fill="none" xmlns="http://www.w3.org/2000/svg">
<path d="M21 4.92334C20.2639 5.24915 19.4744 5.47004 18.6447 5.56894C19.4917 5.06242 20.1422 4.25704 20.4473 3.3003C19.6551 3.77001 18.7766 4.1105 17.8418 4.29602C17.0937 3.49906 16.0282 3 14.8479 3C12.5819 3 10.7449 4.83671 10.7449 7.10174C10.7449 7.42273 10.7815 7.73627 10.8511 8.03658C7.44256 7.86453 4.41956 6.23163 2.39636 3.74931C2.0424 4.35594 1.84099 5.06122 1.84099 5.81173C1.84099 7.23456 2.47625 8.4904 3.57712 9.22624C2.90457 9.20434 1.62996 9.02002 1.62996 8.7125V8.76375C1.62996 10.7506 3.13413 12.409 5.00982 12.7863C4.66572 12.8804 4.34761 12.9302 3.97295 12.9302C3.70802 12.9302 3.47389 12.9033 3.22268 12.8556C3.74508 14.4861 5.27066 15.6712 7.06574 15.7051C5.6624 16.8048 3.89812 17.4615 1.97623 17.4615C1.64416 17.4615 1.32124 17.4408 1 17.404C2.81602 18.5669 4.97252 19.2467 7.29 19.2467C14.8356 19.2467 18.9624 12.9959 18.9624 7.57505C18.9624 7.39675 18.959 7.21989 18.9506 7.04423C19.7523 6.46576 20.4468 5.74315 20.9971 4.92069L21 4.92334V4.92334Z" fill="#B6BECA"/>
</svg>
