<svg width="22" height="22" viewBox="0 0 22 22" fill="none" xmlns="http://www.w3.org/2000/svg">
<mask id="mask0" mask-type="alpha" maskUnits="userSpaceOnUse" x="0" y="2" width="22" height="18">
<path fill-rule="evenodd" clip-rule="evenodd" d="M11 20H22V2L11 2L0 2V20H11Z" fill="white"/>
</mask>
<g mask="url(#mask0)">
<path fill-rule="evenodd" clip-rule="evenodd" d="M16.2946 2C15.8113 2 15.3293 2.06204 14.8646 2.18395C14.4459 2.2934 14.1936 2.72671 14.3015 3.15178C14.4109 3.57603 14.8378 3.83177 15.2565 3.72244C15.5933 3.63319 15.9425 3.58929 16.2953 3.58929C18.5763 3.58929 20.4332 5.47121 20.4332 7.78312C20.4332 8.27917 20.348 8.76412 20.183 9.2233C20.0345 9.6351 20.2435 10.0921 20.6498 10.2419C20.7384 10.2747 20.8292 10.2907 20.9186 10.2907C21.2383 10.2907 21.5394 10.0901 21.6549 9.76812C21.8832 9.13336 22 8.46529 22 7.78245C21.9993 4.59477 19.4405 2 16.2945 2H16.2946ZM8.18286 18.6372C3.74861 18.6372 2.24849 16.2995 2.24849 14.61C2.24849 11.933 5.74781 9.95559 9.04225 9.95559C12.336 9.95559 14.6838 11.3742 15.2215 13.2345C16.0175 15.9874 12.5457 18.6372 8.18286 18.6372ZM16.0147 10.4788C16.0917 10.2552 16.168 10.0343 16.168 10.0343C17.5403 7.36511 14.0024 6.4948 11.9737 7.62913C9.94564 8.76479 10.9246 6.84319 10.9246 6.84319C11.2601 3.33358 7.6199 4.8867 7.6199 4.8867C-0.834221 9.69157 0.0244801 14.4531 0.0244801 14.4531C0.0244801 17.0736 4.07793 20 9.19006 20C15.9626 20 19.8242 15.9874 19.1532 13.0052C18.8816 11.8013 17.4709 10.7694 16.0148 10.4788H16.0147ZM17.84 9.30755C17.9364 9.34895 18.04 9.37026 18.1446 9.37026C18.4492 9.37026 18.7401 9.18849 18.8665 8.88533C19.0123 8.53695 19.0858 8.16565 19.0858 7.78381C19.0858 6.22379 17.8339 4.95428 16.2946 4.95428C15.9186 4.95428 15.5528 5.02878 15.2077 5.17656C14.809 5.34793 14.6227 5.81402 14.7911 6.21754C14.9602 6.62162 15.4201 6.81111 15.8189 6.64043C15.9695 6.57624 16.1312 6.54335 16.2946 6.54358C16.969 6.54358 17.5183 7.09964 17.5183 7.78381C17.5183 7.95246 17.4868 8.11473 17.4234 8.2666C17.2543 8.67009 17.4413 9.13687 17.84 9.30755ZM7.38815 16.3741C6.71789 16.4681 6.1142 16.0954 6.03785 15.5408C5.963 14.9876 6.44417 14.4622 7.11455 14.3675C7.78416 14.274 8.38843 14.6468 8.46474 15.2015C8.53971 15.7554 8.05776 16.28 7.38815 16.3741ZM7.94429 11.9212C6.03785 12.188 4.66845 13.6832 4.88295 15.2593C5.09814 16.8353 6.81746 17.8972 8.7239 17.6303C10.6289 17.3635 12.0004 15.8682 11.7852 14.2908C11.5709 12.7148 9.85073 11.6536 7.94429 11.9212Z" fill="#B6BECA"/>
</g>
</svg>
