<svg width="12" height="16" viewBox="0 0 12 16" fill="none" xmlns="http://www.w3.org/2000/svg">
<path fill-rule="evenodd" clip-rule="evenodd" d="M2.25 3.75C2.25 1.67893 3.92893 0 6 0C8.07107 0 9.75 1.67893 9.75 3.75V6.75H8.25V3.75C8.25 2.50736 7.24264 1.5 6 1.5C4.75736 1.5 3.75 2.50736 3.75 3.75V6.75H2.25V3.75Z" fill="white"/>
<path fill-rule="evenodd" clip-rule="evenodd" d="M2 5C0.895431 5 0 5.89543 0 7V14C0 15.1046 0.895431 16 2 16H10C11.1046 16 12 15.1046 12 14V7C12 5.89543 11.1046 5 10 5H2ZM6 8C5.44772 8 5 8.44772 5 9V12C5 12.5523 5.44772 13 6 13C6.55228 13 7 12.5523 7 12V9C7 8.44772 6.55228 8 6 8Z" fill="white"/>
</svg>
