<svg width="44" height="333" viewBox="0 0 44 333" fill="none" xmlns="http://www.w3.org/2000/svg">
<path fill-rule="evenodd" clip-rule="evenodd" d="M7.85008 5.75911C9.8468 3.93341 12.1763 2.50933 14.7115 1.56465C17.2491 0.61972 19.8064 0.5 22.3834 0.5C24.9603 0.5 27.5194 0.61972 30.0553 1.56465C32.5908 2.50834 34.9203 3.93253 36.9162 5.75911C39.0285 7.70998 40.7073 10.0829 41.844 12.7242C43.0915 15.5205 43.6592 18.7487 43.6592 22.537L43.8302 68.505H43.8383V333H30.6713V22.537C30.6713 19.3516 30.1391 17.0683 28.4334 15.5633C26.7276 14.0582 24.7141 13.6606 22.3834 13.6606C20.0526 13.6606 18.0387 14.0582 16.333 15.5633C14.6272 17.0683 13.9535 19.4114 13.9535 22.5925V66.3757H13.9492V333H0.782227L0.782227 70.754C0.782227 70.7113 0.782227 70.6728 0.782227 70.6343V22.537C0.787235 19.1506 1.5174 15.8047 2.92357 12.7242C4.06026 10.0836 5.73813 7.71079 7.8488 5.75911H7.85008Z" fill="#FF9900"/>
</svg>
