<svg width="47" height="332" viewBox="0 0 47 332" fill="none" xmlns="http://www.w3.org/2000/svg">
<path fill-rule="evenodd" clip-rule="evenodd" d="M9.45784 0.0641161C12.2574 0.0641161 14.7266 1.8975 15.5363 4.57736L26.0233 39.2851L33.2301 39.2509V6.60912C33.2301 2.97316 36.1776 0.0256348 39.8136 0.0256348V0.0256348C43.4496 0.0256348 46.3971 2.97317 46.3971 6.60913V332H33.2301V50.7867L26.3978 50.8936C24.1522 50.8936 22.7213 51.2186 21.3892 51.8599C20.114 52.4554 19.0486 53.4228 18.333 54.6348C17.4968 56.0114 16.9368 57.5378 16.6842 59.1286C16.5534 60.188 16.4951 61.2552 16.5098 62.3226H16.5063V332H3.33934V66.0467C3.33292 65.6875 3.32822 65.3241 3.32822 64.9521C3.32822 59.6203 4.25419 55.041 5.87612 51.2186C7.49749 47.3875 10.3458 44.3119 14.421 41.9916L3.42301 8.38916C2.07935 4.28384 5.13823 0.0641161 9.45784 0.0641161V0.0641161Z" fill="#FF9900" style="fill:#FF9900;fill:color(display-p3 1.0000 0.6000 0.0000);fill-opacity:1;"/>
</svg>
