<svg width="44" height="332" viewBox="0 0 44 332" fill="none" xmlns="http://www.w3.org/2000/svg">
<path fill-rule="evenodd" clip-rule="evenodd" d="M7.18938 5.43443C9.18716 3.6114 11.5163 2.18893 14.0503 1.24424C19.0303 -0.414747 24.4137 -0.414747 29.3937 1.24424C31.9287 2.18722 34.2583 3.60988 36.2551 5.43443C38.3667 7.38777 40.0458 9.76189 41.1842 12.4038C42.4282 15.1959 42.9968 18.4283 42.9968 22.2123L43.1678 68.005H43.1763V332H30.0093V22.2123C30.0093 19.0312 29.4792 16.7437 27.7735 15.2386C26.0678 13.7336 24.05 13.1606 21.7244 13.1606C19.3988 13.1606 17.3776 13.7336 15.6723 15.2386C13.967 16.7437 13.2928 19.0867 13.2928 22.2721V65.8757H13.2881V332H0.121094L0.121094 70.2541C0.121094 70.2113 0.121094 70.1728 0.121094 70.1343V22.2123C0.126211 18.8273 0.856533 15.4827 2.26287 12.4038C3.40054 9.76238 5.07925 7.38835 7.18938 5.43443Z" fill="#FF9900"/>
</svg>
