<svg width="48" height="333" viewBox="0 0 48 333" fill="none" xmlns="http://www.w3.org/2000/svg">
<g clip-path="url(#clip0_1209_770)">
<path fill-rule="evenodd" clip-rule="evenodd" d="M9.95784 0.56436C12.7574 0.56436 15.2266 2.39774 16.0363 5.0776L26.5233 39.7854L33.7301 39.7512V7.10937C33.7301 3.4734 36.6776 0.525879 40.3136 0.525879V0.525879C43.9496 0.525879 46.8971 3.47341 46.8971 7.10938V325.917C46.8971 329.553 43.9496 332.5 40.3136 332.5V332.5C36.6776 332.5 33.7301 329.553 33.7301 325.917V51.287L26.8978 51.3939C24.6522 51.3939 23.2213 51.7189 21.8892 52.3602C20.614 52.9557 19.5486 53.9231 18.833 55.1351C17.9968 56.5117 17.4368 58.0381 17.1842 59.6289C17.0534 60.6883 16.9951 61.7555 17.0098 62.8229H17.0063V325.917C17.0063 329.553 14.0588 332.5 10.4228 332.5V332.5C6.78686 332.5 3.83934 329.553 3.83934 325.917V66.547C3.83292 66.1878 3.82822 65.8244 3.82822 65.4524C3.82822 60.1206 4.75419 55.5413 6.37612 51.7189C7.99749 47.8878 10.8458 44.8122 14.921 42.4919L3.92301 8.8894C2.57935 4.78409 5.63823 0.56436 9.95784 0.56436V0.56436Z" fill="#FF9900" style="fill:#FF9900;fill:color(display-p3 1.0000 0.6000 0.0000);fill-opacity:1;"/>
</g>
<defs>
<clipPath id="clip0_1209_770">
<rect width="47" height="332" fill="white" style="fill:white;fill-opacity:1;" transform="translate(0.5 0.5)"/>
</clipPath>
</defs>
</svg>
