<svg width="50" height="333" viewBox="0 0 50 333" fill="none" xmlns="http://www.w3.org/2000/svg">
<g clip-path="url(#clip0_1209_766)">
<path fill-rule="evenodd" clip-rule="evenodd" d="M10.4734 0.56436C13.1658 0.56436 15.5673 2.25771 16.4715 4.79379L29.4345 41.1536L35.9398 27.869V7.13354C35.9398 3.50238 38.8778 0.55578 42.509 0.545176V0.545176C46.1551 0.534528 49.1166 3.48736 49.1166 7.13355V325.917C49.1166 329.553 46.1691 332.5 42.5331 332.5V332.5C38.8971 332.5 35.9496 329.553 35.9496 325.917V92.4193H35.9389V53.1555H35.6893L19.2258 89.2681V325.917C19.2258 329.553 16.2783 332.5 12.6423 332.5V332.5C9.00634 332.5 6.05881 329.553 6.05881 325.917V89.2681L20.8272 55.6525L4.46501 9.0414C3.01129 4.90017 6.08445 0.56436 10.4734 0.56436V0.56436Z" fill="#FF9900" style="fill:#FF9900;fill:color(display-p3 1.0000 0.6000 0.0000);fill-opacity:1;"/>
</g>
<defs>
<clipPath id="clip0_1209_766">
<rect width="49" height="332" fill="white" style="fill:white;fill-opacity:1;" transform="translate(0.5 0.5)"/>
</clipPath>
</defs>
</svg>
