<svg width="47" height="332" viewBox="0 0 47 332" fill="none" xmlns="http://www.w3.org/2000/svg">
<path fill-rule="evenodd" clip-rule="evenodd" d="M14.1726 0.0641771L26.0233 39.2852L33.2301 39.251V0.0256958H46.3971V332H33.2301V50.7868L26.3978 50.8937C24.1522 50.8937 22.7213 51.2187 21.3892 51.86C20.114 52.4555 19.0486 53.4229 18.333 54.6349C17.4968 56.0115 16.9368 57.5379 16.6842 59.1287C16.5534 60.1881 16.4951 61.2553 16.5098 62.3227H16.5063V332H3.33934V66.0468C3.33292 65.6876 3.32822 65.3242 3.32822 64.9522C3.32822 59.6204 4.25419 55.0411 5.87612 51.2187C7.49749 47.3876 10.3458 44.312 14.421 41.9917L0.698242 0.0641771H14.1709H14.1726Z" fill="#FFE400"/>
</svg>
