<svg width="45" height="333" viewBox="0 0 45 333" fill="none" xmlns="http://www.w3.org/2000/svg">
<g clip-path="url(#clip0_1209_772)">
<path fill-rule="evenodd" clip-rule="evenodd" d="M7.68938 5.93443C9.68716 4.1114 12.0163 2.68893 14.5503 1.74424C19.5303 0.0852532 24.9137 0.0852532 29.8937 1.74424C32.4287 2.68722 34.7583 4.10988 36.7551 5.93443C38.8667 7.88777 40.5458 10.2619 41.6842 12.9038C42.9282 15.6959 43.4968 18.9283 43.4968 22.7123L43.6678 68.505H43.6763V325.917C43.6763 329.552 40.7288 332.5 37.0928 332.5V332.5C33.4568 332.5 30.5093 329.552 30.5093 325.917V22.7123C30.5093 19.5312 29.9792 17.2437 28.2735 15.7386C26.5678 14.2336 24.55 13.6606 22.2244 13.6606C19.8988 13.6606 17.8776 14.2336 16.1723 15.7386C14.467 17.2437 13.7928 19.5867 13.7928 22.7721V66.3757H13.7881V325.917C13.7881 329.552 10.8406 332.5 7.2046 332.5V332.5C3.56863 332.5 0.621094 329.552 0.621094 325.916V70.7541C0.621094 70.7113 0.621094 70.6728 0.621094 70.6343V22.7123C0.626211 19.3273 1.35653 15.9827 2.76287 12.9038C3.90054 10.2624 5.57925 7.88835 7.68938 5.93443Z" fill="#FF9900" style="fill:#FF9900;fill:color(display-p3 1.0000 0.6000 0.0000);fill-opacity:1;"/>
</g>
<defs>
<clipPath id="clip0_1209_772">
<rect width="44" height="332" fill="white" style="fill:white;fill-opacity:1;" transform="translate(0.5 0.5)"/>
</clipPath>
</defs>
</svg>
