<svg width="45" height="334" viewBox="0 0 45 334" fill="none" xmlns="http://www.w3.org/2000/svg">
<g clip-path="url(#clip0_1209_768)">
<path fill-rule="evenodd" clip-rule="evenodd" d="M8.35008 6.25911C10.3468 4.43341 12.6763 3.00933 15.2115 2.06465C17.7491 1.11972 20.3064 1 22.8834 1C25.4603 1 28.0194 1.11972 30.5553 2.06465C33.0908 3.00834 35.4203 4.43253 37.4162 6.25911C39.5285 8.20998 41.2073 10.5829 42.344 13.2242C43.5915 16.0205 44.1592 19.2487 44.1592 23.037L44.3302 69.005H44.3383V326.917C44.3383 330.552 41.3908 333.5 37.7548 333.5V333.5C34.1188 333.5 31.1713 330.552 31.1713 326.917V23.037C31.1713 19.8516 30.6391 17.5683 28.9334 16.0633C27.2276 14.5582 25.2141 14.1606 22.8834 14.1606C20.5526 14.1606 18.5387 14.5582 16.833 16.0633C15.1272 17.5683 14.4535 19.9114 14.4535 23.0925V66.8757H14.4492V326.916C14.4492 330.552 11.5017 333.5 7.86571 333.5V333.5C4.22975 333.5 1.28223 330.552 1.28223 326.917V71.254C1.28223 71.2113 1.28223 71.1728 1.28223 71.1343V23.037C1.28723 19.6506 2.0174 16.3047 3.42357 13.2242C4.56026 10.5836 6.23813 8.21079 8.3488 6.25911H8.35008Z" fill="#FF9900" style="fill:#FF9900;fill:color(display-p3 1.0000 0.6000 0.0000);fill-opacity:1;"/>
</g>
<defs>
<clipPath id="clip0_1209_768">
<rect width="44" height="333" fill="white" style="fill:white;fill-opacity:1;" transform="translate(0.5 0.5)"/>
</clipPath>
</defs>
</svg>
