<svg width="40" height="26" viewBox="0 0 40 26" fill="none" xmlns="http://www.w3.org/2000/svg">
<path fill-rule="evenodd" clip-rule="evenodd" d="M8.43341 9.63695C7.33557 12.3649 5.55574 14.8766 3.09391 17.1721C2.76123 17.4715 2.36202 17.6212 1.89627 17.6212C1.26418 17.6212 0.748528 17.3884 0.349313 16.9226C0.116438 16.6565 0 16.3404 0 15.9745C0 15.4422 0.232875 14.9432 0.698626 14.4774C2.49509 12.681 3.75927 11.0675 4.49117 9.63695H2.99411C2.46182 9.63695 2.01271 9.47061 1.64676 9.13793C1.28081 8.77198 1.09784 8.32286 1.09784 7.79058C1.09784 7.25829 1.28081 6.82581 1.64676 6.49313C2.01271 6.16045 2.46182 5.99411 2.99411 5.99411H5.73871L5.93832 4.69666C6.00485 4.19765 6.20446 3.79843 6.53714 3.49902C6.86982 3.16634 7.26903 3 7.73478 3C8.33361 3 8.81599 3.19961 9.18194 3.59882C9.58115 3.99804 9.74749 4.48042 9.68096 5.04598L9.53125 5.99411H13.1741C13.7396 5.99411 14.2054 6.16045 14.5713 6.49313C14.9373 6.82581 15.1203 7.25829 15.1203 7.79058C15.1203 8.32286 14.9373 8.77198 14.5713 9.13793C14.2054 9.47061 13.7396 9.63695 13.1741 9.63695H8.43341ZM38.2035 3.499C38.7026 3.499 39.1184 3.68197 39.4511 4.04792C39.817 4.41387 40 4.82971 40 5.29546C40 5.79448 39.817 6.22697 39.4511 6.59291C39.1184 6.92559 38.7026 7.09193 38.2035 7.09193H36.7564V21.5635C36.7564 22.0958 36.5734 22.5449 36.2075 22.9108C35.8415 23.2768 35.3924 23.4597 34.8601 23.4597H31.7662C31.2672 23.4265 30.8513 23.2601 30.5187 22.9607C30.186 22.628 30.0196 22.1956 30.0196 21.6633C29.9864 21.1975 30.1361 20.7983 30.4688 20.4656C30.8014 20.1329 31.2173 19.95 31.7163 19.9167H32.9139V7.09193H23.0334C22.5344 7.09193 22.1019 6.92559 21.7359 6.59291C21.4033 6.22697 21.2369 5.79448 21.2369 5.29546C21.2369 4.82971 21.4033 4.41387 21.7359 4.04792C22.1019 3.68197 22.5344 3.499 23.0334 3.499H38.2035ZM31.1887 14.02C31.1887 17.1205 28.6752 19.6339 25.5747 19.6339C23.4104 19.6339 21.5321 18.4091 20.5951 16.6149L18.265 17.1214C17.9626 19.9367 15.579 22.129 12.6834 22.129C9.58289 22.129 7.06944 19.6155 7.06944 16.515C7.06944 13.4145 9.58289 10.9011 12.6834 10.9011C14.8216 10.9011 16.6805 12.0964 17.6285 13.8553L20.0016 13.3394C20.3375 10.5599 22.7045 8.40601 25.5747 8.40601C28.6752 8.40601 31.1887 10.9195 31.1887 14.02ZM27.8619 14.02C27.8619 15.2831 26.8379 16.3071 25.5747 16.3071C24.3115 16.3071 23.2875 15.2831 23.2875 14.02C23.2875 12.7568 24.3115 11.7328 25.5747 11.7328C26.8379 11.7328 27.8619 12.7568 27.8619 14.02ZM14.9706 16.515C14.9706 17.7782 13.9466 18.8022 12.6834 18.8022C11.4202 18.8022 10.3962 17.7782 10.3962 16.515C10.3962 15.2519 11.4202 14.2279 12.6834 14.2279C13.9466 14.2279 14.9706 15.2519 14.9706 16.515Z" fill="white" style="fill:white;fill-opacity:1;"/>
</svg>
