<svg width="51" height="26" viewBox="0 0 51 26" fill="none" xmlns="http://www.w3.org/2000/svg">
<g clip-path="url(#clip0_1204_279)">
<path fill-rule="evenodd" clip-rule="evenodd" d="M10.7171 8.43416C9.32196 11.9008 7.06017 15.0927 3.93171 18.0098C3.50895 18.3903 3.00163 18.5805 2.40976 18.5805C1.60651 18.5805 0.95122 18.2846 0.443903 17.6927C0.147968 17.3545 0 16.9529 0 16.4878C0 15.8114 0.295935 15.1773 0.887806 14.5854C3.17073 12.3025 4.77724 10.252 5.70732 8.43416H3.80488C3.12846 8.43416 2.55773 8.22277 2.09268 7.80001C1.62764 7.33497 1.39512 6.76423 1.39512 6.08781C1.39512 5.41139 1.62764 4.86179 2.09268 4.43903C2.55773 4.01626 3.12846 3.80488 3.80488 3.80488H7.29269L7.54635 2.1561C7.6309 1.52195 7.88456 1.01464 8.30732 0.63415C8.73009 0.211383 9.23741 0 9.82928 0C10.5903 0 11.2033 0.253659 11.6683 0.760978C12.1756 1.26829 12.387 1.8813 12.3025 2.6L12.1122 3.80488H16.7415C17.4602 3.80488 18.052 4.01626 18.5171 4.43903C18.9821 4.86179 19.2146 5.41139 19.2146 6.08781C19.2146 6.76423 18.9821 7.33497 18.5171 7.80001C18.052 8.22277 17.4602 8.43416 16.7415 8.43416H10.7171ZM48.5486 0.634122C49.1828 0.634122 49.7112 0.866642 50.134 1.33168C50.599 1.79672 50.8315 2.32518 50.8315 2.91705C50.8315 3.5512 50.599 4.10079 50.134 4.56583C49.7112 4.9886 49.1828 5.19998 48.5486 5.19998H46.7096V23.5902C46.7096 24.2667 46.4771 24.8374 46.012 25.3024C45.547 25.7675 44.9763 26 44.2998 26H40.3681C39.734 25.9577 39.2055 25.7463 38.7828 25.3659C38.36 24.9431 38.1486 24.3935 38.1486 23.7171C38.1063 23.1252 38.2966 22.6179 38.7193 22.1951C39.1421 21.7723 39.6706 21.5398 40.3047 21.4976H41.8267V5.19998H29.2706C28.6364 5.19998 28.0868 4.9886 27.6218 4.56583C27.199 4.10079 26.9876 3.5512 26.9876 2.91705C26.9876 2.32518 27.199 1.79672 27.6218 1.33168C28.0868 0.866642 28.6364 0.634122 29.2706 0.634122H48.5486ZM39.6342 14.0041C39.6342 17.9442 36.4401 21.1383 32.5 21.1383C29.7496 21.1383 27.3627 19.5819 26.1721 17.3017L23.2109 17.9455C22.8267 21.5231 19.7976 24.309 16.1179 24.309C12.1778 24.309 8.98376 21.115 8.98376 17.1749C8.98376 13.2348 12.1778 10.0407 16.1179 10.0407C18.8351 10.0407 21.1974 11.5597 22.4021 13.7949L25.4178 13.1393C25.8446 9.60709 28.8527 6.86999 32.5 6.86999C36.4401 6.86999 39.6342 10.0641 39.6342 14.0041ZM35.4065 14.0041C35.4065 15.6094 34.1053 16.9107 32.5 16.9107C30.8948 16.9107 29.5935 15.6094 29.5935 14.0041C29.5935 12.3989 30.8948 11.0976 32.5 11.0976C34.1053 11.0976 35.4065 12.3989 35.4065 14.0041ZM19.0244 17.1749C19.0244 18.7801 17.7231 20.0814 16.1179 20.0814C14.5127 20.0814 13.2114 18.7801 13.2114 17.1749C13.2114 15.5696 14.5127 14.2684 16.1179 14.2684C17.7231 14.2684 19.0244 15.5696 19.0244 17.1749Z" fill="white" style="fill:white;fill-opacity:1;"/>
</g>
<defs>
<clipPath id="clip0_1204_279">
<rect width="51" height="26" fill="white" style="fill:white;fill-opacity:1;"/>
</clipPath>
</defs>
</svg>
