<?xml version="1.0" encoding="UTF-8"?>
<svg width="208px" height="28px" viewBox="0 0 208 28" version="1.1" xmlns="http://www.w3.org/2000/svg" xmlns:xlink="http://www.w3.org/1999/xlink">
    <!-- Generator: Sketch 55.2 (78181) - https://sketchapp.com -->
    <title>编组 5</title>
    <desc>Created with Sketch.</desc>
    <g id="Index" stroke="none" stroke-width="1" fill="none" fill-rule="evenodd">
        <g id="首页-英文版备份-2" transform="translate(-242.000000, -3462.000000)">
            <g id="编组" transform="translate(120.000000, 3340.000000)">
                <g id="Group" transform="translate(120.000000, 122.000000)">
                    <g id="编组-5" transform="translate(2.000000, 0.000000)">
                        <path d="M11.8840449,7.36166667 C10.0844854,7.36166667 8.70562277,7.90999452 7.74741573,9.00666667 C6.78920869,10.1033388 6.31011236,11.65499 6.31011236,13.6616667 C6.31011236,15.6916768 6.84179244,17.2549945 7.90516854,18.3516667 C8.96854464,19.4483388 10.399991,19.9966667 12.1995506,19.9966667 C13.1577576,19.9966667 13.9698843,19.8683346 14.6359551,19.6116667 C15.3020258,19.3549987 15.9388734,19.063335 16.5465169,18.7366667 C16.9438202,19.063335 17.253482,19.4541644 17.4755056,19.9091667 C17.6975292,20.3641689 17.8085393,20.894997 17.8085393,21.5016667 C17.8085393,22.4583381 17.2768592,23.2691633 16.2134831,23.9341667 C15.150107,24.59917 13.5316963,24.9316667 11.3582022,24.9316667 C9.79235172,24.9316667 8.32000689,24.7100022 6.9411236,24.2666667 C5.5622403,23.8233311 4.35865683,23.1408379 3.33033708,22.2191667 C2.30201733,21.2974954 1.48989062,20.1308404 0.893932584,18.7191667 C0.297974548,17.3074929 5.68434189e-14,15.6216765 5.68434189e-14,13.6616667 C5.68434189e-14,11.8416576 0.286289272,10.2375069 0.858876404,8.84916667 C1.43146354,7.46082639 2.21437706,6.28833812 3.20764045,5.33166667 C4.20090384,4.37499522 5.36358884,3.65166912 6.69573034,3.16166667 C8.02787183,2.67166422 9.45347555,2.42666667 10.9725843,2.42666667 C13.1227074,2.42666667 14.7878593,2.77666317 15.9680899,3.47666667 C17.1483205,4.17666667 17.738427,5.07499452 17.738427,6.17166667 C17.738427,6.77833637 17.5865184,7.30333112 17.2826966,7.74666667 C16.9788749,8.19000222 16.6283166,8.53999872 16.2310112,8.79666667 C15.6233677,8.39999802 14.9748349,8.06166807 14.2853933,7.78166667 C13.5959516,7.50166527 12.7955102,7.36166667 11.8840449,7.36166667 Z M36.8557303,24.2666667 C36.6220213,24.336667 36.2539351,24.4066663 35.7514607,24.4766667 C35.2489863,24.546667 34.7289915,24.5816667 34.1914607,24.5816667 C33.6773008,24.5816667 33.2157324,24.546667 32.8067416,24.4766667 C32.3977508,24.4066663 32.0530351,24.2666677 31.7725843,24.0566667 C31.4921334,23.8466656 31.2759558,23.5608351 31.1240449,23.1991667 C30.9721341,22.8374982 30.8961798,22.3650029 30.8961798,21.7816667 L30.8961798,14.0116667 C30.8961798,13.0549952 30.6566316,12.3841686 30.1775281,11.9991667 C29.6984246,11.6141647 29.1083181,11.4216667 28.407191,11.4216667 C27.9397729,11.4216667 27.4957324,11.4799994 27.0750562,11.5966667 C26.6543799,11.7133339 26.3155069,11.8533325 26.058427,12.0166667 L26.058427,24.2666667 C25.8247179,24.336667 25.4566317,24.4066663 24.9541573,24.4766667 C24.4516829,24.546667 23.9316881,24.5816667 23.3941573,24.5816667 C22.8799974,24.5816667 22.418429,24.546667 22.0094382,24.4766667 C21.6004474,24.4066663 21.2557317,24.2666677 20.9752809,24.0566667 C20.6948301,23.8466656 20.4786524,23.5608351 20.3267416,23.1991667 C20.1748307,22.8374982 20.0988764,22.3650029 20.0988764,21.7816667 L20.0988764,1.48166667 C20.3559563,1.43499977 20.7357278,1.37083374 21.2382022,1.28916667 C21.7406767,1.20749959 22.2489862,1.16666667 22.7631461,1.16666667 C23.2773059,1.16666667 23.7388744,1.20166632 24.1478652,1.27166667 C24.556856,1.34166702 24.9015716,1.48166562 25.1820225,1.69166667 C25.4624733,1.90166772 25.6786509,2.18749819 25.8305618,2.54916667 C25.9824727,2.91083514 26.058427,3.38333042 26.058427,3.96666667 L26.058427,7.39666667 C26.3622487,7.27999942 26.8238171,7.14583409 27.4431461,6.99416667 C28.062475,6.84249924 28.7460637,6.76666667 29.4939326,6.76666667 C31.807652,6.76666667 33.6130272,7.34416089 34.9101124,8.49916667 C36.2071975,9.65417244 36.8557303,11.3749886 36.8557303,13.6616667 L36.8557303,24.2666667 Z M47.2440449,20.5216667 C47.6413503,20.5216667 48.0795482,20.4808337 48.5586517,20.3991667 C49.0377552,20.3174996 49.3941561,20.2066674 49.6278652,20.0666667 L49.6278652,17.2666667 L47.1038202,17.4766667 C46.4494349,17.5233336 45.9119122,17.6633322 45.491236,17.8966667 C45.0705597,18.1300012 44.8602247,18.4799977 44.8602247,18.9466667 C44.8602247,19.4133357 45.0413465,19.7924985 45.4035955,20.0841667 C45.7658445,20.3758348 46.3793215,20.5216667 47.2440449,20.5216667 Z M46.9635955,6.76666667 C48.2256243,6.76666667 49.376624,6.89499872 50.4166292,7.15166667 C51.4566344,7.40833462 52.3447154,7.79916404 53.0808989,8.32416667 C53.8170823,8.84916929 54.3838182,9.51416264 54.7811236,10.3191667 C55.178429,11.1241707 55.3770787,12.0749945 55.3770787,13.1716667 L55.3770787,21.0116667 C55.3770787,21.6183364 55.2076421,22.1141647 54.868764,22.4991667 C54.5298859,22.8841686 54.1267439,23.2166653 53.6593258,23.4966667 C52.1402171,24.4066712 50.0018115,24.8616667 47.2440449,24.8616667 C46.0053871,24.8616667 44.8894432,24.7450012 43.8961798,24.5116667 C42.9029164,24.2783322 42.0498912,23.9283357 41.3370787,23.4616667 C40.6242661,22.9949977 40.0750581,22.4000036 39.6894382,21.6766667 C39.3038183,20.9533297 39.1110112,20.1133381 39.1110112,19.1566667 C39.1110112,17.5466586 39.5901076,16.3100043 40.5483146,15.4466667 C41.5065216,14.583329 42.9905517,14.0466677 45.0004494,13.8366667 L49.592809,13.3466667 L49.592809,13.1016667 C49.592809,12.4249966 49.2948344,11.9408348 48.6988764,11.6491667 C48.1029184,11.3574985 47.2440506,11.2116667 46.1222472,11.2116667 C45.2341529,11.2116667 44.3694382,11.3049991 43.5280899,11.4916667 C42.6867374,11.6783343 41.9271944,11.9116653 41.2494382,12.1916667 C40.9456165,11.9816656 40.6885404,11.6608355 40.4782022,11.2291667 C40.2678641,10.7974978 40.1626966,10.3483357 40.1626966,9.88166667 C40.1626966,9.27499697 40.3087626,8.79083514 40.6008989,8.42916667 C40.8930352,8.06749819 41.3429183,7.75833462 41.9505618,7.50166667 C42.628318,7.24499872 43.4287594,7.05833392 44.3519101,6.94166667 C45.2750608,6.82499942 46.1456139,6.76666667 46.9635955,6.76666667 Z M64.3982022,24.2666667 C64.1644932,24.336667 63.796407,24.4066663 63.2939326,24.4766667 C62.7914582,24.546667 62.2714634,24.5816667 61.7339326,24.5816667 C61.2197727,24.5816667 60.7582043,24.546667 60.3492135,24.4766667 C59.9402227,24.4066663 59.595507,24.2666677 59.3150562,24.0566667 C59.0346053,23.8466656 58.8184277,23.5608351 58.6665169,23.1991667 C58.514606,22.8374982 58.4386517,22.3650029 58.4386517,21.7816667 L58.4386517,11.2816667 C58.4386517,10.7449973 58.5379765,10.2841686 58.7366292,9.89916667 C58.9352819,9.51416474 59.2215712,9.17000152 59.5955056,8.86666667 C59.9694401,8.56333182 60.4310085,8.28916789 60.9802247,8.04416667 C61.5294409,7.79916544 62.1195474,7.58333427 62.7505618,7.39666667 C63.3815762,7.20999907 64.0359517,7.06416719 64.7137079,6.95916667 C65.3914641,6.85416614 66.0692101,6.80166667 66.7469663,6.80166667 C67.8687697,6.80166667 68.7568507,7.01749784 69.411236,7.44916667 C70.0656212,7.88083549 70.392809,8.58666177 70.392809,9.56666667 C70.392809,9.89333497 70.3460679,10.2141651 70.2525843,10.5291667 C70.1591007,10.8441682 70.0422479,11.1299987 69.9020225,11.3866667 C69.4112335,11.3866667 68.9087666,11.4099998 68.3946067,11.4566667 C67.8804469,11.5033336 67.37798,11.5733329 66.887191,11.6666667 C66.396402,11.7600005 65.9348336,11.8591661 65.5024719,11.9641667 C65.0701102,12.0691672 64.702024,12.191666 64.3982022,12.3316667 L64.3982022,24.2666667 Z M79.0283146,20.5216667 C79.42562,20.5216667 79.8638178,20.4808337 80.3429213,20.3991667 C80.8220249,20.3174996 81.1784258,20.2066674 81.4121348,20.0666667 L81.4121348,17.2666667 L78.8880899,17.4766667 C78.2337046,17.5233336 77.6961819,17.6633322 77.2755056,17.8966667 C76.8548294,18.1300012 76.6444944,18.4799977 76.6444944,18.9466667 C76.6444944,19.4133357 76.8256162,19.7924985 77.1878652,20.0841667 C77.5501142,20.3758348 78.1635912,20.5216667 79.0283146,20.5216667 Z M78.7478652,6.76666667 C80.009894,6.76666667 81.1608937,6.89499872 82.2008989,7.15166667 C83.2409041,7.40833462 84.1289851,7.79916404 84.8651685,8.32416667 C85.601352,8.84916929 86.1680879,9.51416264 86.5653933,10.3191667 C86.9626986,11.1241707 87.1613483,12.0749945 87.1613483,13.1716667 L87.1613483,21.0116667 C87.1613483,21.6183364 86.9919118,22.1141647 86.6530337,22.4991667 C86.3141556,22.8841686 85.9110136,23.2166653 85.4435955,23.4966667 C83.9244868,24.4066712 81.7860812,24.8616667 79.0283146,24.8616667 C77.7896567,24.8616667 76.6737128,24.7450012 75.6804494,24.5116667 C74.687186,24.2783322 73.8341609,23.9283357 73.1213483,23.4616667 C72.4085358,22.9949977 71.8593278,22.4000036 71.4737079,21.6766667 C71.088088,20.9533297 70.8952809,20.1133381 70.8952809,19.1566667 C70.8952809,17.5466586 71.3743772,16.3100043 72.3325843,15.4466667 C73.2907913,14.583329 74.7748214,14.0466677 76.7847191,13.8366667 L81.3770787,13.3466667 L81.3770787,13.1016667 C81.3770787,12.4249966 81.0791041,11.9408348 80.4831461,11.6491667 C79.887188,11.3574985 79.0283202,11.2116667 77.9065169,11.2116667 C77.0184225,11.2116667 76.1537079,11.3049991 75.3123596,11.4916667 C74.471007,11.6783343 73.7114641,11.9116653 73.0337079,12.1916667 C72.7298861,11.9816656 72.47281,11.6608355 72.2624719,11.2291667 C72.0521338,10.7974978 71.9469663,10.3483357 71.9469663,9.88166667 C71.9469663,9.27499697 72.0930322,8.79083514 72.3851685,8.42916667 C72.6773048,8.06749819 73.127188,7.75833462 73.7348315,7.50166667 C74.4125877,7.24499872 75.2130291,7.05833392 76.1361798,6.94166667 C77.0593305,6.82499942 77.9298836,6.76666667 78.7478652,6.76666667 Z M99.8283146,11.4566667 C99.244042,11.4566667 98.6889914,11.5499991 98.1631461,11.7366667 C97.6373007,11.9233343 97.181575,12.1974982 96.7959551,12.5591667 C96.4103352,12.9208351 96.1006753,13.3699973 95.8669663,13.9066667 C95.6332573,14.443336 95.5164045,15.0733297 95.5164045,15.7966667 C95.5164045,17.2433406 95.9312318,18.3283297 96.7608989,19.0516667 C97.5905659,19.7750036 98.6013424,20.1366667 99.7932584,20.1366667 C100.494386,20.1366667 101.10202,20.0550008 101.61618,19.8916667 C102.13034,19.7283325 102.586065,19.5533343 102.983371,19.3666667 C103.450789,19.693335 103.801347,20.0491647 104.035056,20.4341667 C104.268765,20.8191686 104.385618,21.2799973 104.385618,21.8166667 C104.385618,22.7733381 103.929892,23.514164 103.018427,24.0391667 C102.106962,24.5641693 100.844952,24.8266667 99.2323596,24.8266667 C97.7599926,24.8266667 96.4278711,24.6108355 95.2359551,24.1791667 C94.044039,23.7474978 93.0215773,23.1408372 92.1685393,22.3591667 C91.3155014,21.5774961 90.6552809,20.6383388 90.1878652,19.5416667 C89.7204471,18.4449945 89.4867416,17.2316733 89.4867416,15.9016667 C89.4867416,14.361659 89.737975,13.0141724 90.2404494,11.8591667 C90.7429239,10.7041609 91.4265125,9.75333707 92.291236,9.00666667 C93.1559594,8.25999627 94.1550505,7.70000187 95.2885393,7.32666667 C96.4220281,6.95333147 97.619769,6.76666667 98.8817978,6.76666667 C100.564503,6.76666667 101.861568,7.06999697 102.773034,7.67666667 C103.684499,8.28333637 104.140225,9.06499522 104.140225,10.0216667 C104.140225,10.4650022 104.035057,10.8791647 103.824719,11.2641667 C103.614381,11.6491686 103.36899,11.9816653 103.088539,12.2616667 C102.691234,12.0749991 102.212138,11.8941675 101.651236,11.7191667 C101.090334,11.5441658 100.4827,11.4566667 99.8283146,11.4566667 Z M112.740674,18.4566667 C112.740674,19.0633364 112.933481,19.4949987 113.319101,19.7516667 C113.704721,20.0083346 114.248086,20.1366667 114.949213,20.1366667 C115.299777,20.1366667 115.662021,20.1075003 116.035955,20.0491667 C116.40989,19.990833 116.737077,19.9150005 117.017528,19.8216667 C117.227866,20.0783346 117.408988,20.3641651 117.560899,20.6791667 C117.71281,20.9941682 117.788764,21.3733311 117.788764,21.8166667 C117.788764,22.7033378 117.455734,23.4266639 116.789663,23.9866667 C116.123592,24.5466667 114.949222,24.8266667 113.266517,24.8266667 C111.209877,24.8266667 109.626522,24.3600047 108.516404,23.4266667 C107.406287,22.4933287 106.851236,20.9766772 106.851236,18.8766667 L106.851236,3.89666667 C107.108316,3.82666632 107.476402,3.75083374 107.955506,3.66916667 C108.434609,3.58749959 108.942919,3.54666667 109.480449,3.54666667 C110.508769,3.54666667 111.309211,3.72749819 111.881798,4.08916667 C112.454385,4.45083514 112.740674,5.21499417 112.740674,6.38166667 L112.740674,8.62166667 L117.333034,8.62166667 C117.473259,8.87833462 117.60764,9.19916474 117.73618,9.58416667 C117.86472,9.96916859 117.928989,10.3949977 117.928989,10.8616667 C117.928989,11.6783374 117.747867,12.2674982 117.385618,12.6291667 C117.023369,12.9908351 116.53843,13.1716667 115.930787,13.1716667 L112.740674,13.1716667 L112.740674,18.4566667 Z M129.018427,24.8616667 C127.639544,24.8616667 126.360006,24.6691686 125.179775,24.2841667 C123.999545,23.8991647 122.97124,23.3216705 122.094831,22.5516667 C121.218423,21.7816628 120.528991,20.8133392 120.026517,19.6466667 C119.524042,18.4799942 119.272809,17.1150078 119.272809,15.5516667 C119.272809,14.011659 119.524042,12.6875055 120.026517,11.5791667 C120.528991,10.4708278 121.189209,9.56083689 122.007191,8.84916667 C122.825173,8.13749644 123.759995,7.61250169 124.811685,7.27416667 C125.863376,6.93583164 126.938421,6.76666667 128.036854,6.76666667 C129.275512,6.76666667 130.403141,6.95333147 131.419775,7.32666667 C132.43641,7.70000187 133.312805,8.21333007 134.048989,8.86666667 C134.785172,9.52000327 135.357751,10.3016621 135.766742,11.2116667 C136.175732,12.1216712 136.380225,13.113328 136.380225,14.1866667 C136.380225,14.980004 136.158204,15.5866646 135.714157,16.0066667 C135.27011,16.4266688 134.65079,16.6949994 133.85618,16.8116667 L125.197303,18.1066667 C125.454383,18.8766705 125.980221,19.4541647 126.774831,19.8391667 C127.569442,20.2241686 128.480894,20.4166667 129.509213,20.4166667 C130.467421,20.4166667 131.373029,20.2941679 132.226067,20.0491667 C133.079105,19.8041654 133.774379,19.518335 134.31191,19.1916667 C134.685845,19.4250012 135.001347,19.7516646 135.258427,20.1716667 C135.515507,20.5916688 135.644045,21.0349977 135.644045,21.5016667 C135.644045,22.5516719 135.153263,23.3333308 134.171685,23.8466667 C133.423816,24.2433353 132.582477,24.511666 131.64764,24.6516667 C130.712804,24.7916674 129.836409,24.8616667 129.018427,24.8616667 Z M128.036854,11.1066667 C127.475952,11.1066667 126.991013,11.1999991 126.582022,11.3866667 C126.173032,11.5733343 125.840001,11.8124985 125.582921,12.1041667 C125.325841,12.3958348 125.133034,12.7224982 125.004494,13.0841667 C124.875954,13.4458351 124.8,13.8133315 124.776629,14.1866667 L130.771236,13.2066667 C130.701123,12.7399977 130.444047,12.2733333 130,11.8066667 C129.555953,11.3399977 128.901577,11.1066667 128.036854,11.1066667 Z M144.630112,24.2666667 C144.396403,24.336667 144.028317,24.4066663 143.525843,24.4766667 C143.023368,24.546667 142.503373,24.5816667 141.965843,24.5816667 C141.451683,24.5816667 140.990114,24.546667 140.581124,24.4766667 C140.172133,24.4066663 139.827417,24.2666677 139.546966,24.0566667 C139.266515,23.8466656 139.050338,23.5608351 138.898427,23.1991667 C138.746516,22.8374982 138.670562,22.3650029 138.670562,21.7816667 L138.670562,11.2816667 C138.670562,10.7449973 138.769887,10.2841686 138.968539,9.89916667 C139.167192,9.51416474 139.453481,9.17000152 139.827416,8.86666667 C140.20135,8.56333182 140.662919,8.28916789 141.212135,8.04416667 C141.761351,7.79916544 142.351458,7.58333427 142.982472,7.39666667 C143.613486,7.20999907 144.267862,7.06416719 144.945618,6.95916667 C145.623374,6.85416614 146.30112,6.80166667 146.978876,6.80166667 C148.10068,6.80166667 148.988761,7.01749784 149.643146,7.44916667 C150.297531,7.88083549 150.624719,8.58666177 150.624719,9.56666667 C150.624719,9.89333497 150.577978,10.2141651 150.484494,10.5291667 C150.391011,10.8441682 150.274158,11.1299987 150.133933,11.3866667 C149.643144,11.3866667 149.140677,11.4099998 148.626517,11.4566667 C148.112357,11.5033336 147.60989,11.5733329 147.119101,11.6666667 C146.628312,11.7600005 146.166744,11.8591661 145.734382,11.9641667 C145.30202,12.0691672 144.933934,12.191666 144.630112,12.3316667 L144.630112,24.2666667 Z" id="Character" fill="#252B58" fill-rule="nonzero"></path>
                        <g id="编组-4" transform="translate(156.584270, 0.000000)">
                            <rect id="矩形" fill="#0074FF" x="0" y="0" width="51.4157303" height="28" rx="14"></rect>
                            <path d="M15.0414382,16.4038096 L15.0414382,22.0761429 C14.8529129,22.1274765 14.5529908,22.1788093 14.1416629,22.2301429 C13.730335,22.2814765 13.3275825,22.3071429 12.9333933,22.3071429 C12.539204,22.3071429 12.1921513,22.2771988 11.8922247,22.2173096 C11.5922981,22.1574204 11.3395066,22.050477 11.1338427,21.8964762 C10.9281787,21.7424755 10.7739331,21.5285887 10.6711011,21.2548096 C10.5682691,20.9810304 10.5168539,20.6217007 10.5168539,20.1768096 L10.5168539,6.62480957 C10.7053792,6.59058718 11.0053013,6.54353209 11.4166292,6.4836429 C11.8279571,6.42375372 12.2221404,6.39380957 12.599191,6.39380957 C12.9933802,6.39380957 13.340433,6.42375372 13.6403596,6.4836429 C13.9402861,6.54353209 14.1930776,6.65047547 14.3987416,6.80447624 C14.6044055,6.95847701 14.7586512,7.17236376 14.8614831,7.4461429 C14.9643151,7.71992205 15.0157303,8.07925179 15.0157303,8.5241429 L15.0157303,12.6051429 L20.3629663,6.47080957 C21.5283953,6.47080957 22.3638926,6.68897406 22.8694831,7.12530957 C23.3750737,7.56164509 23.6278652,8.07925102 23.6278652,8.6781429 C23.6278652,9.12303402 23.5164655,9.54225205 23.2936629,9.93580957 C23.0708603,10.3293671 22.7109538,10.7742515 22.2139326,11.2704762 L19.0004494,14.4788096 C19.428916,14.9579231 19.8787991,15.4541403 20.3501124,15.9674762 C20.8214256,16.4808121 21.2841625,16.9813071 21.7383371,17.4689762 C22.1925116,17.9566453 22.629541,18.4229185 23.0494382,18.8678096 C23.4693354,19.3127007 23.8335265,19.6976968 24.1420225,20.0228096 C24.1420225,20.3992559 24.0734689,20.7329192 23.9363596,21.0238096 C23.7992503,21.3146999 23.6150124,21.5628085 23.3836404,21.7681429 C23.1522685,21.9734773 22.8909078,22.1274757 22.5995506,22.2301429 C22.3081933,22.3328101 21.999702,22.3841429 21.6740674,22.3841429 C20.9713823,22.3841429 20.3972457,22.2087558 19.9516404,21.8579762 C19.5060352,21.5071967 19.0775751,21.0922564 18.6662472,20.6131429 L15.0414382,16.4038096 Z M25.8901573,6.23980957 C25.8901573,5.5895841 26.108672,5.04203402 26.5457079,4.5971429 C26.9827438,4.15225179 27.5611649,3.92980957 28.2809888,3.92980957 C29.0008126,3.92980957 29.5792338,4.15225179 30.0162697,4.5971429 C30.4533056,5.04203402 30.6718202,5.5895841 30.6718202,6.23980957 C30.6718202,6.89003504 30.4533056,7.43758512 30.0162697,7.88247624 C29.5792338,8.32736735 29.0008126,8.54980957 28.2809888,8.54980957 C27.5611649,8.54980957 26.9827438,8.32736735 26.5457079,7.88247624 C26.108672,7.43758512 25.8901573,6.89003504 25.8901573,6.23980957 Z M30.4661573,22.1531429 C30.277632,22.1873653 29.9991329,22.2344204 29.6306517,22.2943096 C29.2621704,22.3541988 28.8894101,22.3841429 28.5123596,22.3841429 C28.135309,22.3841429 27.7968255,22.3584765 27.4968989,22.3071429 C27.1969723,22.2558093 26.9441808,22.1531437 26.7385169,21.9991429 C26.5328529,21.8451421 26.3743227,21.6355331 26.2629213,21.3703096 C26.15152,21.105086 26.0958202,20.7585895 26.0958202,20.3308096 L26.0958202,9.88447624 C26.2843455,9.85025384 26.5628446,9.80319876 26.9313258,9.74330957 C27.2998071,9.68342038 27.6725674,9.65347624 28.049618,9.65347624 C28.4266686,9.65347624 28.7651521,9.67914265 29.0650787,9.73047624 C29.3650052,9.78180983 29.6177967,9.88447547 29.8234607,10.0384762 C30.0291246,10.192477 30.1876549,10.402086 30.2990562,10.6673096 C30.4104575,10.9325331 30.4661573,11.2790297 30.4661573,11.7068096 L30.4661573,22.1531429 Z M37.6129438,17.8924762 C37.6129438,18.3373674 37.7543357,18.6539197 38.0371236,18.8421429 C38.3199115,19.0303661 38.7183795,19.1244762 39.2325393,19.1244762 C39.4896193,19.1244762 39.7552645,19.1030876 40.0294831,19.0603096 C40.3037017,19.0175316 40.5436394,18.961921 40.7493034,18.8934762 C40.9035513,19.0816994 41.036374,19.2913084 41.1477753,19.5223096 C41.2591766,19.7533107 41.3148764,20.0313635 41.3148764,20.3564762 C41.3148764,21.0067017 41.0706541,21.5371409 40.5822022,21.9478096 C40.0937504,22.3584783 39.2325455,22.5638096 37.9985618,22.5638096 C36.4903595,22.5638096 35.3292325,22.2215908 34.5151461,21.5371429 C33.7010596,20.852695 33.2940225,19.7404839 33.2940225,18.2004762 L33.2940225,7.2151429 C33.4825478,7.16380931 33.7524776,7.10819876 34.1038202,7.04830957 C34.4551628,6.98842038 34.8279231,6.95847624 35.2221124,6.95847624 C35.9762135,6.95847624 36.5632039,7.09108602 36.9831011,7.35630957 C37.4029984,7.62153312 37.6129438,8.1819164 37.6129438,9.03747624 L37.6129438,10.6801429 L40.9806742,10.6801429 C41.0835061,10.8683661 41.182052,11.1036415 41.2763146,11.3859762 C41.3705773,11.668311 41.4177079,11.9805856 41.4177079,12.3228096 C41.4177079,12.9217015 41.2848852,13.3537527 41.019236,13.6189762 C40.7535867,13.8841998 40.3979648,14.0168096 39.9523596,14.0168096 L37.6129438,14.0168096 L37.6129438,17.8924762 Z" id="Kit" fill="#FFFFFF" fill-rule="nonzero"></path>
                        </g>
                    </g>
                </g>
            </g>
        </g>
    </g>
</svg>