
<svg width="587px" height="120px" viewBox="0 0 587 120" version="1.1" xmlns="http://www.w3.org/2000/svg" xmlns:xlink="http://www.w3.org/1999/xlink">
    <defs>
        <path d="M0.715479305,0 C0.247576713,1.62086899 0,3.31600289 0,5.06097901 L0,8.10833233 C0,19.6811974 10.9130887,29.0625 24.375,29.0625 C37.8369113,29.0625 48.75,19.6811974 48.75,8.10833233 L48.75,5.06097901 C48.75,3.31600289 48.5018435,1.62086899 48.0345207,0 L0.715479305,0 Z" id="path-1"></path>
    </defs>
    <g id="Page-1" stroke="none" stroke-width="1" fill="none" fill-rule="evenodd">
        <g id="Group-7">
            <g id="Group-6">
                <circle id="Oval" fill="#F1D1C8" cx="60" cy="60" r="60"></circle>
                <g id="Group-5" transform="translate(33.750000, 26.250000)">
                    <g id="04" transform="translate(1.875000, 38.437500)">
                        <mask id="mask-2" fill="white">
                            <use xlink:href="#path-1"></use>
                        </mask>
                        <use fill="#161616" xlink:href="#path-1"></use>
                        <g mask="url(#mask-2)" fill="#FF6C6C" fill-rule="nonzero">
                            <g transform="translate(6.562500, 16.875000)">
                                <ellipse cx="17.8125" cy="8.4375" rx="17.8125" ry="8.4375"></ellipse>
                            </g>
                        </g>
                    </g>
                    <path d="M6.20454545,0 C9.63122129,-6.29470139e-16 12.4090909,2.77786962 12.4090909,6.20454545 L12.4090909,20.0454545 C12.4090909,23.4721304 9.63122129,26.25 6.20454545,26.25 C2.77786962,26.25 3.08418202e-15,23.4721304 0,20.0454545 L0,6.20454545 C-1.30782518e-15,2.77786962 2.77786962,6.29470139e-16 6.20454545,0 Z M46.2954545,0 C49.7221304,-6.29470139e-16 52.5,2.77786962 52.5,6.20454545 L52.5,20.0454545 C52.5,23.4721304 49.7221304,26.25 46.2954545,26.25 C42.8687787,26.25 40.0909091,23.4721304 40.0909091,20.0454545 L40.0909091,6.20454545 C40.0909091,2.77786962 42.8687787,6.29470139e-16 46.2954545,0 Z" id="Combined-Shape" fill="#161616"></path>
                </g>
            </g>
            <g id="logo" transform="translate(168.000000, 18.000000)" fill="#161616" fill-rule="nonzero">
                <path d="M69,66.322452 C69,68.7803573 68.5629175,70.6041254 67.6889905,71.7935187 C66.8150635,72.982912 65.4247792,74.1326272 63.5181376,75.2426643 C62.4059102,75.8770391 61.0153878,76.5114139 59.3470466,77.1455511 C57.6787055,77.7005696 55.8513387,78.1764695 53.8651842,78.5727755 C51.8790298,79.0486754 49.7736061,79.4055409 47.5491513,79.6433721 C45.4042092,79.8812032 43.2590291,80 41.113849,80 C35.3936862,80 30.031093,79.2468284 25.0258315,77.7402477 C20.0207128,76.1545484 15.6511016,73.8154398 11.9170932,70.7231597 C8.26250242,67.5515234 5.36268838,63.6264779 3.21760351,58.9484985 C1.07253768,54.2702814 0,48.8388928 0,42.654095 C0,36.1523475 1.15198623,30.4831277 3.45595156,25.6461982 C5.83938449,20.8095062 8.93781397,16.8053421 12.7512876,13.6337058 C16.6442027,10.3827132 21.0535226,7.96448602 25.9792713,6.37854905 C30.9845328,4.79284968 36.1088256,4 41.3523875,4 C48.8996791,4 54.8583805,5.22883385 59.2280155,7.68697675 C63.6769252,10.0655258 65.9013801,13.1977216 65.9013801,17.0828514 C65.9013801,19.1444506 65.3850228,20.9285406 64.3523082,22.4348837 C63.3193555,23.9414645 62.1278533,25.1308578 60.7770874,26.0030637 C58.7909329,24.8136704 56.2884212,23.6639552 53.2693141,22.5539181 C50.3297198,21.3645248 46.9930375,20.7698281 43.2590291,20.7698281 C36.5854264,20.7698281 31.2625897,22.6729525 27.2900428,26.478726 C23.397223,30.2847371 21.4507535,35.5576508 21.4507535,42.2972295 C21.4507535,45.9447658 21.9671584,49.1164021 23,51.8121385 C24.1121481,54.4287563 25.5819452,56.6093899 27.409312,58.3538018 C29.2366789,60.0188574 31.3418645,61.2873694 33.725345,62.1595753 C36.1088256,62.9526626 38.6510937,63.3489687 41.3523875,63.3489687 C43.1002415,63.3489687 44.6493134,63.1904938 46.0000794,62.8733064 C47.3506072,62.556119 48.3833218,62.1992535 49.0984612,61.8029474 L49.0984612,50.6229828 L36.347126,50.6229828 C35.8705251,49.7507769 35.3936862,48.6010617 34.9170853,47.1738372 C34.5197592,45.7463751 34.3212152,44.240032 34.3212152,42.654095 C34.3212152,39.7996461 34.9568417,37.7380469 36.2278567,36.4695349 C37.5786227,35.2007853 39.2867203,34.5664105 41.3523875,34.5664105 L61.4922267,34.5664105 C63.8757073,34.5664105 65.702836,35.2404634 66.9740892,36.5883317 C68.324617,37.8570812 69,39.6808493 69,42.0593984 L69,66.322452 Z" id="Path"></path>
                <path d="M82,16.9949517 C82,13.6058217 82.9923775,10.9259292 84.9773704,8.95551029 C86.9623633,6.98509137 89.6620773,6 93.0762746,6 L132.379752,6 C132.935541,6.86676704 133.411863,8.00962418 133.808957,9.42857143 C134.285279,10.8472825 134.52344,12.3446403 134.52344,13.9211171 C134.52344,16.9160688 133.84869,19.0442535 132.498714,20.305435 C131.228442,21.5663803 129.521344,22.196971 127.377418,22.196971 L102.247023,22.196971 L102.247023,33.1919228 L129.044783,33.1919228 C129.600572,34.058926 130.077132,35.2017831 130.473988,36.6204942 C130.950548,37.9605586 131.188709,39.4187111 131.188709,40.9949517 C131.188709,43.9901396 130.553454,46.1180882 129.282945,47.3792696 C128.012673,48.6402149 126.305574,49.2708057 124.161649,49.2708057 L102.247023,49.2708057 L102.247023,61.6847046 L132.856074,61.6847046 C133.411863,62.5517078 133.888185,63.694565 134.285279,65.1132761 C134.761601,66.5319871 135,68.0295811 135,69.6058217 C135,72.6010097 134.325012,74.7683996 132.975274,76.1082278 C131.704764,77.3694093 129.997666,78 127.85374,78 L93.0762746,78 C89.6620773,78 86.9623633,77.0146725 84.9773704,75.0442535 C82.9923775,73.0738346 82,70.3939421 82,67.0048121 L82,16.9949517 Z" id="Path"></path>
                <path d="M147,16.9949517 C147,13.6058217 147.992377,10.9259292 149.97737,8.95551029 C151.962363,6.98509137 154.662077,6 158.076275,6 L197.379752,6 C197.935541,6.86676704 198.411863,8.00962418 198.808957,9.42857143 C199.285279,10.8472825 199.523678,12.3446403 199.523678,13.9211171 C199.523678,16.9160688 198.84869,19.0442535 197.498714,20.305435 C196.228442,21.5663803 194.521344,22.196971 192.377418,22.196971 L167.247261,22.196971 L167.247261,33.1919228 L194.044783,33.1919228 C194.60081,34.058926 195.077132,35.2017831 195.474226,36.6204942 C195.950548,37.9605586 196.188709,39.4187111 196.188709,40.9949517 C196.188709,43.9901396 195.553454,46.1180882 194.283182,47.3792696 C193.012673,48.6402149 191.305574,49.2708057 189.161649,49.2708057 L167.247261,49.2708057 L167.247261,61.6847046 L197.856074,61.6847046 C198.411863,62.5517078 198.888423,63.694565 199.285279,65.1132761 C199.761839,66.5319871 200,68.0295811 200,69.6058217 C200,72.6010097 199.325012,74.7683996 197.975274,76.1082278 C196.704764,77.3694093 194.997666,78 192.853978,78 L158.076275,78 C154.662077,78 151.962363,77.0146725 149.97737,75.0442535 C147.992377,73.0738346 147,70.3939421 147,67.0048121 L147,16.9949517 Z" id="Path"></path>
                <path d="M233.041597,9.12588489 C233.041597,10.9430121 233.001633,13.5899803 232.921707,17.066553 C232.842019,20.4640481 232.682166,24.1776168 232.442625,28.207259 C232.203084,32.1578237 231.883616,36.1481639 231.484222,40.1775694 C231.085067,44.1283709 230.605745,47.5654047 230.046737,50.4889078 C229.727269,50.7259038 229.248187,50.9628998 228.609252,51.1998958 C227.970316,51.4368918 227.291657,51.6345858 226.572795,51.7925042 C225.854172,51.9504226 225.135309,52.069039 224.416687,52.1481166 C223.697824,52.2269574 223.058889,52.2664962 222.49988,52.2664962 C220.183919,52.2664962 218.227389,51.9111206 216.63005,51.1998958 C215.112878,50.4889078 214.154474,49.1059971 213.75508,47.0518739 C213.355925,45.23451 212.996494,42.4689253 212.677026,38.7553567 C212.437485,35.041788 212.197944,31.0121457 211.958403,26.6666667 C211.718623,22.3209508 211.519045,18.0147738 211.359431,13.7481355 C211.279504,9.48149727 211.239541,5.84676942 211.239541,2.8444255 C212.83688,1.97528234 214.633556,1.30359637 216.63005,0.829604375 C218.706471,0.276534792 220.742928,0 222.739421,0 C226.013786,0 228.529325,0.750526789 230.286278,2.25181713 C232.123157,3.75287071 233.041597,6.04446339 233.041597,9.12588489 Z M211,68.8590572 C211,65.6197173 211.998367,62.972749 213.99486,60.9183891 C216.071041,58.7851883 218.906287,57.7183512 222.49988,57.7183512 C226.093713,57.7183512 228.888756,58.7851883 230.88525,60.9183891 C232.96167,62.972749 234,65.6197173 234,68.8590572 C234,72.0986339 232.96167,74.785141 230.88525,76.9183417 C228.888756,78.9727017 226.093713,80 222.49988,80 C218.906287,80 216.071041,78.9727017 213.99486,76.9183417 C211.998367,74.785141 211,72.0986339 211,68.8590572 Z" id="Shape"></path>
                <path d="M321.295333,60.4547441 C320.26824,61.3209854 318.920923,62.0295995 317.258124,62.5808225 C315.675974,63.0534679 313.816296,63.2896726 311.679089,63.2896726 C308.827899,63.2896726 306.453488,62.9352476 304.553485,62.2263975 C302.734132,61.5177833 301.54574,60.297117 300.990683,58.5646344 C298.775199,51.6349402 296.953474,46.0436607 295.530251,41.7912679 C294.104655,37.4600615 292.996913,33.6800781 292.204653,30.4515537 L291.611643,30.4515537 C291.374439,35.0975424 291.175188,39.3499352 291.016261,43.2087321 C290.937984,46.9887155 290.859707,50.6898853 290.779057,54.3122416 C290.779057,57.9345979 290.70078,61.5965969 290.541854,65.2977667 C290.463576,68.9989365 290.30465,73.0937022 290.067446,77.5825357 C289.037981,77.9761316 287.693035,78.2911499 286.030236,78.5273546 C284.367437,78.8423729 282.704638,79 281.044211,79 C277.559687,79 274.82947,78.448777 272.85119,77.346331 C270.951187,76.243649 270,74.235555 270,71.3220489 L273.4442,11.0792273 C274.077534,10.0555949 275.462805,8.95314889 277.600011,7.77188933 C279.737218,6.59062978 282.744963,6 286.623246,6 C290.819382,6 294.104655,6.66944334 296.479066,8.00809405 C298.853477,9.26816717 300.596925,11.3548388 301.704667,14.2685809 C302.416278,16.1586906 303.168215,18.3241758 303.960476,20.7655085 C304.831014,23.2066052 305.661227,25.7265155 306.453488,28.3252393 C307.324026,30.9239631 308.156612,33.5226869 308.946501,36.1214108 C309.738761,38.641321 310.450373,40.9250266 311.083707,42.9725274 L311.679089,42.9725274 C313.579092,36.3576155 315.479095,29.9789083 317.379097,23.8366417 C319.276728,17.6155617 321.020177,12.418114 322.602326,8.24429877 C323.790718,7.61449818 325.29459,7.10244599 327.113944,6.70885012 C329.013946,6.23620472 331.113201,6 333.406962,6 C337.287617,6 340.454288,6.59062978 342.906976,7.77188933 C345.362036,8.87433533 346.785259,10.4885975 347.18139,12.6149119 C347.499243,14.1897674 347.814724,16.6311 348.132577,19.938438 C348.528707,23.1671984 348.922466,26.8289614 349.318596,30.9239631 C349.714727,35.0189648 350.110857,39.3499352 350.506988,43.9173463 C350.903118,48.4849934 351.258924,52.8947773 351.574405,57.1471702 C351.970535,61.3209854 352.288388,65.1795464 352.525592,68.723325 C352.762796,72.1882901 352.921723,74.8655916 353,76.7557012 C351.655054,77.5431289 350.229459,78.0943519 348.725587,78.4093702 C347.299991,78.8029661 345.440313,79 343.14418,79 C340.136435,79 337.603098,78.4881838 335.544169,77.4643154 C333.487611,76.440683 332.379869,74.4325889 332.220943,71.4400332 C331.746535,62.856434 331.428682,55.1390761 331.269755,48.2879595 C331.191478,41.4368428 331.032551,35.6881721 330.795347,31.0421835 L330.202338,31.0421835 C329.410077,34.1133167 328.26201,37.9718777 326.758138,42.6181024 C325.254265,47.264327 323.43254,53.2097956 321.295333,60.4547441 Z" id="Path"></path>
                <path d="M366,16.9949517 C366,13.6058217 366.994523,10.9259292 368.978811,8.95551029 C370.963099,6.98509137 373.663539,6 377.077752,6 L416.380454,6 C416.937197,6.86676704 417.413045,8.00962418 417.810379,9.42857143 C418.286227,10.8472825 418.524152,12.3446403 418.524152,13.9211171 C418.524152,16.9160688 417.850826,19.0442535 416.499416,20.305435 C415.228901,21.5663803 413.522984,22.196971 411.379287,22.196971 L386.247351,22.196971 L386.247351,33.1919228 L413.047136,33.1919228 C413.601499,34.058926 414.077348,35.2017831 414.474681,36.6204942 C414.952909,37.9605586 415.190833,39.4187111 415.190833,40.9949517 C415.190833,43.9901396 414.555576,46.1180882 413.28506,47.3792696 C412.014545,48.6402149 410.306249,49.2708057 408.162552,49.2708057 L386.247351,49.2708057 L386.247351,61.6847046 L416.856303,61.6847046 C417.413045,62.5517078 417.888894,63.694565 418.286227,65.1132761 C418.762076,66.5319871 419,68.0295811 419,69.6058217 C419,72.6010097 418.326674,74.7683996 416.975265,76.1082278 C415.707129,77.3694093 413.998833,78 411.855136,78 L377.077752,78 C373.663539,78 370.963099,77.0146725 368.978811,75.0442535 C366.994523,73.0738346 366,70.3939421 366,67.0048121 L366,16.9949517 Z" id="Path"></path>
            </g>
        </g>
    </g>
</svg>