<svg width="14" height="14" viewBox="0 0 14 14" fill="none" xmlns="http://www.w3.org/2000/svg">
<path d="M11.1281 6.40755C10.7985 6.9328 10.2851 7.31644 9.688 7.48364L9.64155 7.49573C9.54722 7.52426 9.44927 7.53904 9.35073 7.53964C8.925 7.53964 8.68445 7.252 8.81364 6.89564C8.90845 6.636 9.15664 6.41582 9.46145 6.314C9.92982 6.14345 10.2601 5.75209 10.2601 5.29645C10.2601 4.68364 9.66255 4.18536 8.92564 4.18536C8.18936 4.18536 7.59309 4.683 7.59309 5.29645V8.70355C7.59309 9.52445 7.11773 10.2435 6.40818 10.6489C6.00176 10.8807 5.54158 11.0016 5.07373 10.9995C3.68709 10.9995 2.55691 9.97054 2.55691 8.70355C2.55691 8.302 2.67018 7.92273 2.87127 7.59309C3.20294 7.06443 3.72095 6.6795 4.32282 6.51445H4.32409C4.42718 6.48136 4.53473 6.46482 4.64355 6.46355C5.07182 6.46355 5.31555 6.75309 5.18509 7.11073C5.09791 7.35255 4.85864 7.56255 4.58309 7.67264C4.5503 7.68357 4.51783 7.69545 4.48573 7.70827C4.04473 7.89091 3.74245 8.26827 3.74245 8.70418C3.74245 9.31764 4.33873 9.81591 5.07564 9.81591C5.81064 9.81591 6.40818 9.31764 6.40818 8.70418V5.29645C6.40818 4.47745 6.88418 3.759 7.59309 3.35109C7.99953 3.11924 8.45963 2.99791 8.92755 2.99918C10.3161 2.99918 11.4456 4.02945 11.4456 5.29645C11.4456 5.68909 11.3355 6.07345 11.1287 6.40755H11.1281ZM7 0C3.13409 0 0 3.13345 0 7C0 10.8659 3.13409 14 7 14C10.8659 14 14 10.8659 14 7C14 3.13345 10.8659 0 7 0Z" fill="white"/>
</svg>
