<?xml version="1.0" encoding="UTF-8"?>
<svg width="78px" height="40px" viewBox="0 0 78 40" version="1.1" xmlns="http://www.w3.org/2000/svg" xmlns:xlink="http://www.w3.org/1999/xlink">
    <!-- Generator: Sketch 55.2 (78181) - https://sketchapp.com -->
    <title>yoke_logo</title>
    <desc>Created with Sketch.</desc>
    <g id="Index" stroke="none" stroke-width="1" fill="none" fill-rule="evenodd">
        <g id="首页-英文版备份-2" transform="translate(-241.000000, -2569.000000)">
            <g id="Group" transform="translate(120.000000, 2460.000000)">
                <g id="yoke_logo" transform="translate(121.000000, 109.000000)">
                    <path d="M73.8738804,0.95996 C74.8388289,0.95996 75.6429526,1.31196 76.2862515,2.01596 C76.9938804,2.71996 77.3476948,3.51996 77.3476948,4.41596 C77.3476948,5.37596 76.9938804,6.20796 76.2862515,6.91196 C75.6429526,7.55196 74.8388289,7.87196 73.8738804,7.87196 L71.0755299,7.87196 L71.0755299,35.712 C71.0755299,36.736 70.7217155,37.6 70.0140866,38.304 C69.3064577,39.008 68.4380041,39.36 67.4087258,39.36 L61.4260454,39.36 C60.4610969,39.296 59.6569732,38.976 59.0136742,38.4 C58.3703753,37.76 58.0487258,36.928 58.0487258,35.904 C57.9843959,35.008 58.2738804,34.24 58.9171794,33.6 C59.5604784,32.96 60.3646021,32.608 61.3295505,32.544 L63.6454268,32.544 L63.6454268,7.87196 L44.5394474,7.87196 C43.574499,7.87196 42.7382103,7.55196 42.0305814,6.91196 C41.3872825,6.20796 41.065633,5.37596 41.065633,4.41596 C41.065633,3.51996 41.3872825,2.71996 42.0305814,2.01596 C42.7382103,1.31196 43.574499,0.95996 44.5394474,0.95996 L73.8738804,0.95996 Z" id="路径" fill="#2D3641" fill-rule="nonzero"></path>
                    <path d="M16.3076289,12.768 C14.1847423,18.016 10.7430928,22.848 5.98268041,27.264 C5.33938144,27.84 4.56742268,28.128 3.66680412,28.128 C2.44453608,28.128 1.44742268,27.68 0.675463918,26.784 C0.225154639,26.272 0,25.664 0,24.96 C0,23.936 0.450309278,22.976 1.35092784,22.08 C4.82474227,18.624 7.26927835,15.52 8.68453608,12.768 L5.78969072,12.768 C4.76041237,12.768 3.89195876,12.448 3.1843299,11.808 C2.47670103,11.104 2.1228866,10.24 2.1228866,9.216 C2.1228866,8.192 2.47670103,7.36 3.1843299,6.72 C3.89195876,6.08 4.76041237,5.76 5.78969072,5.76 L11.0969072,5.76 L11.4828866,3.264 C11.6115464,2.304 11.9975258,1.536 12.6408247,0.960008 C13.2841237,0.3200016 14.0560825,0 14.956701,0 C16.1146392,0 17.0474227,0.3840008 17.7550515,1.152 C18.5270103,1.92 18.8486598,2.848 18.72,3.936 L18.4305155,5.76 L25.4746392,5.76 C26.5682474,5.76 27.468866,6.08 28.1764948,6.72 C28.8841237,7.36 29.2379381,8.192 29.2379381,9.216 C29.2379381,10.24 28.8841237,11.104 28.1764948,11.808 C27.468866,12.448 26.5682474,12.768 25.4746392,12.768 L16.3076289,12.768 Z" id="路径" fill="#2D3641" fill-rule="nonzero"></path>
                    <ellipse id="椭圆形" stroke="#FF9F10" stroke-width="6.4" cx="24.5257732" cy="26" rx="7.63917526" ry="7.6"></ellipse>
                    <ellipse id="椭圆形" stroke="#FF9F10" stroke-width="6.4" cx="49.4536082" cy="21.2" rx="7.63917526" ry="7.6"></ellipse>
                    <path d="M32.9690722,24.4 L42.2164948,22.4" id="路径" stroke="#FF9F10" stroke-width="6.4"></path>
                </g>
            </g>
        </g>
    </g>
</svg>